<?xml version="1.0" encoding="utf-8"?>
<!-- Generator: Adobe Illustrator 16.0.0, SVG Export Plug-In . SVG Version: 6.00 Build 0)  -->
<!DOCTYPE svg PUBLIC "-//W3C//DTD SVG 1.1//EN" "http://www.w3.org/Graphics/SVG/1.1/DTD/svg11.dtd">
<svg version="1.1" id="Layer_1" xmlns="http://www.w3.org/2000/svg" xmlns:xlink="http://www.w3.org/1999/xlink" x="0px" y="0px"
	 width="439.361px" height="71.108px" viewBox="0 0 439.361 71.108" enable-background="new 0 0 439.361 71.108"
	 xml:space="preserve">
<path fill="#5F9A9F" d="M46.867,49.659h-9.921V22.37l9.921,5.923V49.659z M22.669,28.437L32.83,22.37v27.289H22.669V28.437z
	 M13.325,29.221l2.11,3.535l3.117-1.862v22.882h32.431V30.75l3.358,2.005l2.11-3.535L34.888,16.347L13.325,29.221z"/>
<path fill="#5F9A9F" d="M34.888,66.993c-16.967,0-30.771-13.804-30.771-30.771c0-16.968,13.804-30.771,30.771-30.771
	s30.771,13.803,30.771,30.771C65.659,53.188,51.855,66.993,34.888,66.993 M34.888,1.333C15.651,1.333,0,16.983,0,36.222
	c0,19.237,15.651,34.887,34.888,34.887s34.888-15.65,34.888-34.887C69.776,16.983,54.125,1.333,34.888,1.333"/>
<path fill="#5F9A9F" d="M191.293,37.82c-7.67,0-13.91-6.24-13.91-13.91c0-7.669,6.24-13.909,13.91-13.909s13.91,6.24,13.91,13.909
	C205.204,31.581,198.963,37.82,191.293,37.82 M191.293,5.885c-9.939,0-18.026,8.086-18.026,18.025
	c0,9.94,8.087,18.027,18.026,18.027S209.32,33.85,209.32,23.91C209.32,13.971,201.233,5.885,191.293,5.885"/>
<path fill="#5F9A9F" d="M295.542,37.82c-7.671,0-13.909-6.24-13.909-13.91c0-7.669,6.238-13.909,13.909-13.909
	c7.67,0,13.908,6.24,13.908,13.909C309.45,31.581,303.211,37.82,295.542,37.82 M295.542,5.885c-9.939,0-18.026,8.086-18.026,18.025
	c0,9.94,8.087,18.027,18.026,18.027c9.938,0,18.024-8.087,18.024-18.027C313.566,13.971,305.48,5.885,295.542,5.885"/>
<path fill="#5F9A9F" d="M355.309,24.972c0,7.084-5.764,12.848-12.847,12.848c-7.085,0-12.848-5.764-12.848-12.848V6.446h-4.117
	v18.526c0,9.354,7.611,16.965,16.965,16.965c9.354,0,16.963-7.611,16.963-16.965V6.446h-4.116V24.972z"/>
<path fill="#5F9A9F" d="M110.457,14.396l6.745,12.384h-13.468L110.457,14.396z M101.499,30.896h17.944l5.879,10.795h4.688
	L110.452,5.776L90.954,41.69h4.683L101.499,30.896z"/>
<polygon fill="#5F9A9F" points="262.17,26.779 239.787,26.779 239.787,6.446 235.67,6.446 235.67,41.691 239.787,41.691 
	239.787,30.896 262.17,30.896 262.17,41.691 266.287,41.691 266.287,6.446 262.17,6.446 "/>
<polygon fill="#5F9A9F" points="439.361,10.291 439.361,6.175 411.833,6.175 411.833,41.937 439.361,41.937 439.361,37.82 
	415.948,37.82 415.948,30.223 429.536,30.223 429.536,26.107 415.948,26.107 415.948,10.291 "/>
<polygon fill="#5F9A9F" points="165.177,37.505 145.093,37.505 145.093,6.445 140.977,6.445 140.977,41.623 165.177,41.623 "/>
<path fill="#5F9A9F" d="M386.438,20.665c-5.232-1.805-8.41-3.104-8.41-5.907c0-2.433,0.82-4.719,6.777-4.972
	c2.839-0.119,5.981,0.891,7.615,2.46c0.446,0.427,0.977,1.092,0.976,1.834l4.116,0.003c0.002-1.736-0.772-3.398-2.241-4.807
	c-2.458-2.359-6.63-3.774-10.641-3.602c-8.86,0.375-10.719,5.147-10.719,9.084c0,5.94,5.941,7.99,11.184,9.799
	c3.801,1.311,7.732,2.667,8.544,5.126c0.547,1.653,0.334,3.254-0.615,4.629c-1.438,2.08-4.291,3.359-7.83,3.51
	c-5.447,0.225-8.859-1.843-9.776-5.862h-4.193c0.976,6.246,5.905,9.995,13.204,9.995c0.31,0,0.622-0.008,0.94-0.02
	c4.84-0.207,8.865-2.131,11.042-5.283c1.687-2.443,2.092-5.377,1.137-8.261C396.095,23.996,391.186,22.303,386.438,20.665"/>
<path fill="#5F9A9F" d="M92.89,60.822v-2.384h2.141c1.028,0,1.605,0.368,1.605,1.174c0,0.82-0.55,1.21-1.605,1.21H92.89z
	 M98.629,59.612c0-1.862-1.243-2.959-3.563-2.959h-4.114v9.727h1.938v-3.87h0.569l2.835,3.87h2.35l-2.995-3.898
	C97.518,62.301,98.629,61.211,98.629,59.612"/>
<polygon fill="#5F9A9F" points="109.284,62.364 114.315,62.364 114.315,60.586 109.284,60.586 109.284,58.431 114.558,58.431 
	114.558,56.653 107.345,56.653 107.345,66.381 114.614,66.381 114.614,64.601 109.284,64.601 "/>
<path fill="#5F9A9F" d="M128.172,58.333c1.084,0,1.966,0.501,2.516,1.342l1.667-1.022c-0.792-1.362-2.376-2.182-4.169-2.182
	c-2.995,0-5.106,2.12-5.106,5.045c0,2.925,2.111,5.045,5.106,5.045c1.779,0,3.245-0.792,4.107-2.057l-1.585-1.14
	c-0.583,0.848-1.459,1.334-2.536,1.334c-1.716,0-3.064-1.229-3.071-3.182C125.101,59.626,126.408,58.333,128.172,58.333"/>
<path fill="#5F9A9F" d="M145.622,64.699c-1.785,0-3.085-1.292-3.085-3.183c0-1.89,1.3-3.183,3.085-3.183
	c1.793,0,3.086,1.293,3.086,3.183C148.708,63.407,147.415,64.699,145.622,64.699 M145.622,56.471c-2.994,0-5.106,2.141-5.106,5.045
	c0,2.904,2.112,5.045,5.106,5.045c2.995,0,5.114-2.141,5.114-5.045C150.736,58.612,148.617,56.471,145.622,56.471"/>
<polygon fill="#5F9A9F" points="163.315,64.414 160.528,56.653 158.465,56.653 162.12,66.38 164.475,66.38 168.13,56.653 
	166.115,56.653 "/>
<polygon fill="#5F9A9F" points="178.263,62.364 183.294,62.364 183.294,60.586 178.263,60.586 178.263,58.431 183.538,58.431 
	183.538,56.653 176.325,56.653 176.325,66.381 183.593,66.381 183.593,64.601 178.263,64.601 "/>
<path fill="#5F9A9F" d="M194.462,60.822v-2.384h2.14c1.029,0,1.606,0.368,1.606,1.174c0,0.82-0.55,1.21-1.606,1.21H194.462z
	 M200.203,59.612c0-1.862-1.244-2.959-3.564-2.959h-4.114v9.727h1.938v-3.87h0.569l2.836,3.87h2.349l-2.995-3.898
	C199.09,62.301,200.203,61.211,200.203,59.612"/>
<polygon fill="#5F9A9F" points="212.58,60.78 210.133,56.653 207.855,56.653 211.6,62.538 211.6,66.381 213.539,66.381 
	213.539,62.545 217.236,56.653 215.026,56.653 "/>
<path fill="#5F9A9F" d="M240.338,58.333c1.084,0,1.967,0.501,2.516,1.342l1.668-1.022c-0.792-1.362-2.377-2.182-4.169-2.182
	c-2.995,0-5.108,2.12-5.108,5.045c0,2.925,2.113,5.045,5.108,5.045c1.778,0,3.245-0.792,4.105-2.057l-1.584-1.14
	c-0.584,0.848-1.46,1.334-2.536,1.334c-1.717,0-3.065-1.229-3.071-3.182C237.267,59.626,238.573,58.333,240.338,58.333"/>
<polygon fill="#5F9A9F" points="255.084,62.364 260.116,62.364 260.116,60.586 255.084,60.586 255.084,58.431 260.359,58.431 
	260.359,56.653 253.147,56.653 253.147,66.381 260.415,66.381 260.415,64.601 255.084,64.601 "/>
<polygon fill="#5F9A9F" points="276.1,63.149 271.16,56.653 269.345,56.653 269.345,66.38 271.285,66.38 271.291,59.883 
	276.225,66.38 278.044,66.38 278.044,56.653 276.1,56.653 "/>
<polygon fill="#5F9A9F" points="286.317,58.466 289.332,58.466 289.332,66.38 291.27,66.38 291.27,58.466 294.286,58.466 
	294.286,56.653 286.317,56.653 "/>
<polygon fill="#5F9A9F" points="304.495,62.364 309.526,62.364 309.526,60.586 304.495,60.586 304.495,58.431 309.769,58.431 
	309.769,56.653 302.557,56.653 302.557,66.381 309.825,66.381 309.825,64.601 304.495,64.601 "/>
<path fill="#5F9A9F" d="M320.696,60.822v-2.384h2.139c1.03,0,1.606,0.368,1.606,1.174c0,0.82-0.551,1.21-1.606,1.21H320.696z
	 M326.434,59.612c0-1.862-1.243-2.959-3.563-2.959h-4.114v9.727h1.939v-3.87h0.568l2.835,3.87h2.351l-2.995-3.898
	C325.323,62.301,326.434,61.211,326.434,59.612"/>
<path fill="#5F9A9F" d="M339.688,60.662l-0.55-0.09c-1.168-0.195-2.008-0.41-2.008-1.126c0-0.736,0.771-1.168,1.862-1.168
	c1.062,0,1.995,0.355,2.758,0.827l0.917-1.584c-1.222-0.729-2.354-1.035-3.716-1.035c-2.071,0-3.878,1.056-3.878,3.085
	c0,1.758,1.251,2.515,2.966,2.786l0.62,0.098c1.354,0.215,2.062,0.466,2.062,1.14c0,0.75-0.834,1.173-1.909,1.173
	c-1.253,0-2.398-0.486-3.101-1.048l-1.007,1.563c1.043,0.84,2.626,1.272,4.1,1.272c2.092,0,3.982-1.022,3.982-3.169
	C342.788,61.689,341.424,60.947,339.688,60.662"/>
</svg>
